<svg width="193" height="37" viewBox="0 0 193 37" fill="none" xmlns="http://www.w3.org/2000/svg">
<path d="M25.6631 6.83134C25.6631 6.83134 21.9383 3.61241 17.1858 3.61241C17.1858 3.61241 11.5343 3.61241 7.55254 7.90432C7.55254 7.90432 3.57077 12.1962 3.57077 18.0976C3.57077 18.0976 3.57077 23.999 7.55254 28.2909C7.55254 28.2909 11.5343 32.4487 17.1858 32.4487C17.1858 32.4487 21.9383 32.4487 25.6631 29.3639L27.4614 31.2416C27.4614 31.2416 22.9658 35.1311 17.1858 35.1311C17.1858 35.1311 10.5067 35.1311 5.75432 30.0345C5.75432 30.0345 1.00189 25.0719 1.00189 18.0976C1.00189 18.0976 1.00189 11.1232 5.75432 6.16073C5.75432 6.16073 10.5067 1.06409 17.1858 1.06409C17.1858 1.06409 22.9658 1.06409 27.4614 4.81951L25.6631 6.83134Z" fill="white" fill-opacity="0.65"/>
<path d="M38.6348 13.1338C34.2677 13.1338 31.1851 16.3527 31.1851 16.3527C28.1024 19.5717 28.1024 24.1318 28.1024 24.1318C28.1024 28.692 31.1851 31.9109 31.1851 31.9109C34.2677 35.1298 38.6348 35.1298 38.6348 35.1298C43.6441 35.1298 46.9837 30.7038 46.9837 30.7038V34.5933H49.2957V13.8044H46.9837V17.4257C43.7726 13.1338 38.6348 13.1338 38.6348 13.1338ZM38.6348 15.548C41.9744 15.548 44.4148 17.9622 44.4148 17.9622C46.8552 20.5105 46.8552 24.1318 46.8552 24.1318C46.8552 27.619 44.4148 30.1673 44.4148 30.1673C41.9744 32.7156 38.6348 32.7156 38.6348 32.7156C35.1668 32.7156 32.8548 30.1673 32.8548 30.1673C30.4144 27.619 30.4144 24.1318 30.4144 24.1318C30.4144 20.5105 32.8548 17.9622 32.8548 17.9622C35.1668 15.548 38.6348 15.548 38.6348 15.548Z" fill="white" fill-opacity="0.65"/>
<path d="M82.4353 4.28305C82.4353 4.28305 81.0225 4.28305 81.0225 2.80771C81.0225 2.80771 81.0225 1.19824 82.4353 1.19824C82.4353 1.19824 83.9767 1.19824 83.9767 2.80771C83.9767 2.80771 83.9767 4.28305 82.4353 4.28305Z" fill="white" fill-opacity="0.65"/>
<path d="M56.2328 1.19824V34.5947H53.7924V1.19824H56.2328Z" fill="white" fill-opacity="0.65"/>
<path d="M68.435 30.0344L75.4994 13.8057H78.0683L68.435 35.9358L58.5448 13.8057H61.2421L68.435 30.0344Z" fill="white" fill-opacity="0.65"/>
<path d="M90.2705 15.8176C90.2705 15.8176 92.1971 13.1351 95.922 13.1351C95.922 13.1351 99.2616 13.1351 101.574 15.5493C101.574 15.5493 103.886 17.9635 103.886 21.4507V34.5947H101.574V21.4507C101.574 21.4507 101.574 18.9024 99.9038 17.1588C99.9038 17.1588 98.3625 15.4152 95.922 15.4152C95.922 15.4152 93.61 15.4152 91.9403 17.0247C91.9403 17.0247 90.2705 18.7683 90.2705 21.4507V34.5947H87.9585V13.8057H90.2705V15.8176Z" fill="white" fill-opacity="0.65"/>
<path d="M83.5914 13.8057V34.5946H81.2794V13.8057H83.5914Z" fill="white" fill-opacity="0.65"/>
<path d="M134.584 1.33236L121.868 15.6834L134.455 34.5947H131.501L120.198 17.5611L117.886 20.1095V34.5947H115.574V1.19824H117.886V16.354L131.244 1.33236H134.584Z" fill="white" fill-opacity="0.65"/>
<path d="M140.492 1.19824V34.5947H138.052V1.19824H140.492Z" fill="white" fill-opacity="0.65"/>
<path d="M154.748 13.1338C150.381 13.1338 147.298 16.3527 147.298 16.3527C144.344 19.4375 144.344 24.1318 144.344 24.1318C144.344 28.692 147.298 31.7768 147.298 31.7768C150.381 34.9957 154.748 34.9957 154.748 34.9957C161.427 34.9957 164.253 28.8261 164.253 28.8261L162.198 27.8872C159.886 32.5815 154.748 32.5815 154.748 32.5815C151.409 32.5815 149.097 30.1673 149.097 30.1673C146.656 27.7531 146.656 24.2659 146.656 24.2659H165.281V24.1318C165.281 19.4375 162.198 16.3527 162.198 16.3527C159.115 13.1338 154.748 13.1338 154.748 13.1338ZM154.748 15.4139C157.574 15.4139 159.758 17.2916 159.758 17.2916C161.941 19.0352 162.712 21.7176 162.712 21.7176H146.913C147.684 19.0352 149.739 17.2916 149.739 17.2916C152.051 15.4139 154.748 15.4139 154.748 15.4139Z" fill="white" fill-opacity="0.65"/>
<path d="M168.878 2.80771C168.878 2.80771 168.878 1.19824 170.291 1.19824C170.291 1.19824 171.704 1.19824 171.704 2.80771C171.704 2.80771 171.704 4.28305 170.291 4.28305C170.291 4.28305 168.878 4.28305 168.878 2.80771Z" fill="white" fill-opacity="0.65"/>
<path d="M178.383 13.8057V15.8176C178.383 15.8176 180.181 13.1351 184.035 13.1351C184.035 13.1351 187.374 13.1351 189.686 15.5493C189.686 15.5493 191.998 17.9635 191.998 21.4507V34.5947H189.558V21.4507C189.558 21.4507 189.558 18.9024 188.016 17.1588C188.016 17.1588 186.347 15.4152 184.035 15.4152C184.035 15.4152 181.594 15.4152 180.053 17.0247C180.053 17.0247 178.383 18.7683 178.383 21.4507V34.5947H175.943V13.8057H178.383Z" fill="white" fill-opacity="0.65"/>
<path d="M171.447 13.8057V34.5946H169.135V13.8057H171.447Z" fill="white" fill-opacity="0.65"/>
</svg>
