<svg width="89" height="87" viewBox="0 0 89 87" fill="none" xmlns="http://www.w3.org/2000/svg">
<rect width="89" height="87" fill="#E5E5E5"/>
<g clip-path="url(#clip0_3792_88)">
<rect width="1440" height="4725" transform="translate(-676 -1056)" fill="#000A04"/>
<rect x="-676" y="-322" width="1440" height="694" fill="#121413"/>
<g clip-path="url(#clip1_3792_88)">
<path d="M44.5 0H0V43.5V87H44.5H89V43.5V0H44.5Z" fill="white" fill-opacity="0.65"/>
<path d="M63.9531 22.4705H65.8096C67.5635 22.4705 68.3527 24.061 68.3527 25.2538V43.9707C68.3527 45.3131 67.5392 46.5807 65.9886 46.5552H63.9548V22.4705H63.9531ZM65.8096 21.7755H58.4862V22.4722H60.4192V64.5313H58.4862V65.2772H66.75V64.5313H63.9531V47.4269H66.3693C69.8789 47.4269 71.8623 45.6122 71.8623 43.201V26.3974C71.8605 23.9624 70.1327 21.7755 65.8096 21.7755Z" fill="white" fill-opacity="0.75"/>
<path d="M26.9799 22.3464C26.9799 23.0431 26.5731 22.9921 26.2428 22.7695C25.0469 21.9488 23.5989 21.3524 22.2761 21.3779C20.1397 21.4034 17.0891 22.3974 17.0891 26.7967V59.0359C17.1151 64.6281 19.8859 65.6731 22.6064 65.7224C24.7166 65.7479 25.7335 64.6536 26.5731 64.2814C27.0303 64.0826 27.5135 64.5295 27.5135 65.3503H28.4035V44.8424H30.1575V44.1457H22.7072V44.8424H24.8679V62.4905C24.8679 63.9314 23.8753 65.0002 22.6307 65.0002C21.4348 65.0002 20.4943 63.8821 20.4943 62.4905V25.4781C20.4943 24.484 20.6716 22.1476 22.2743 22.1476C25.325 22.1731 26.9538 30.9224 26.9781 35.4457H27.8681V21.75H27.0042L26.9799 22.3464Z" fill="white" fill-opacity="0.75"/>
<path d="M40.4828 46.6079L42.6192 27.84L44.8059 46.6079H40.4828ZM44.9067 47.3776L46.8901 64.504H44.9328V65.25H52.3066V64.504H50.3736L45.4925 21.75H42.3654L37.7885 62.1421C37.5086 63.5831 37.3817 64.4786 35.2454 64.5278V65.2738H40.7627V64.5278C39.2121 64.5278 38.4994 63.5576 38.6524 62.5143L40.382 47.4014L44.9067 47.3776Z" fill="white" fill-opacity="0.75"/>
</g>
</g>
<defs>
<clipPath id="clip0_3792_88">
<rect width="1440" height="4725" fill="white" transform="translate(-676 -1056)"/>
</clipPath>
<clipPath id="clip1_3792_88">
<rect width="89" height="87" fill="white"/>
</clipPath>
</defs>
</svg>
