<svg width="147" height="23" viewBox="0 0 147 23" fill="none" xmlns="http://www.w3.org/2000/svg">
<path d="M21.9395 20.0811C21.9395 20.3545 21.8906 20.6084 21.793 20.8428C21.6953 21.0771 21.5586 21.2822 21.3828 21.458C21.2168 21.624 21.0166 21.7559 20.7822 21.8535C20.5478 21.9512 20.2939 22 20.0205 22H6.28027C5.92871 22 5.54785 21.9609 5.13769 21.8828C4.7373 21.7949 4.33691 21.6631 3.93652 21.4873C3.5459 21.3115 3.16992 21.0869 2.80859 20.8135C2.44727 20.5303 2.125 20.1934 1.8418 19.8027C1.56836 19.4023 1.34863 18.9434 1.18262 18.4258C1.0166 17.8984 0.933594 17.3076 0.933594 16.6533V6.34082C0.933594 5.98926 0.972656 5.61328 1.05078 5.21289C1.13867 4.80273 1.27051 4.40234 1.44629 4.01172C1.62207 3.61133 1.85156 3.23047 2.13477 2.86914C2.41797 2.50781 2.75488 2.19043 3.14551 1.91699C3.5459 1.63379 4.00488 1.40918 4.52246 1.24316C5.04004 1.07715 5.62598 0.99414 6.28027 0.99414H21.7637V4.80273H6.28027C5.78223 4.80273 5.40137 4.93457 5.13769 5.19824C4.87402 5.46191 4.74219 5.85254 4.74219 6.37012V16.6533C4.74219 17.1416 4.87402 17.5225 5.13769 17.7959C5.41113 18.0596 5.79199 18.1914 6.28027 18.1914H18.1309V13.416H7.99414V9.57812H20.0205C20.2939 9.57812 20.5478 9.63183 20.7822 9.73926C21.0166 9.83691 21.2168 9.97363 21.3828 10.1494C21.5586 10.3252 21.6953 10.5303 21.793 10.7646C21.8906 10.9893 21.9395 11.2334 21.9395 11.4971V20.0811ZM27.6471 22H23.8385V0.99414H27.6471V22ZM50.9914 20.374C50.9914 20.6475 50.9377 20.9014 50.8303 21.1357C50.7326 21.3701 50.5959 21.5752 50.4201 21.751C50.2541 21.917 50.0539 22.0488 49.8195 22.1465C49.5851 22.2441 49.3361 22.293 49.0725 22.293C48.8381 22.293 48.5988 22.249 48.3547 22.1611C48.1203 22.0732 47.9103 21.9316 47.7248 21.7363L33.8088 7.20508V22H30.0002V2.62012C30.0002 2.22949 30.1076 1.87793 30.3225 1.56543C30.5471 1.24316 30.8303 1.00391 31.1721 0.847655C31.5334 0.701171 31.9045 0.666991 32.2853 0.745116C32.6662 0.813476 32.9934 0.989257 33.2668 1.27246L47.1828 15.7891V0.99414H50.9914V20.374ZM74.0574 20.0811C74.0574 20.3545 74.0086 20.6084 73.9109 20.8428C73.8133 21.0771 73.6766 21.2822 73.5008 21.458C73.3348 21.624 73.1346 21.7559 72.9002 21.8535C72.6658 21.9512 72.4119 22 72.1385 22H58.3982C58.0467 22 57.6658 21.9609 57.2557 21.8828C56.8553 21.7949 56.4549 21.6631 56.0545 21.4873C55.6639 21.3115 55.2879 21.0869 54.9266 20.8135C54.5652 20.5303 54.243 20.1934 53.9598 19.8027C53.6863 19.4023 53.4666 18.9434 53.3006 18.4258C53.1346 17.8984 53.0516 17.3076 53.0516 16.6533V6.34082C53.0516 5.98926 53.0906 5.61328 53.1687 5.21289C53.2566 4.80273 53.3885 4.40234 53.5643 4.01172C53.74 3.61133 53.9695 3.23047 54.2527 2.86914C54.5359 2.50781 54.8728 2.19043 55.2635 1.91699C55.6639 1.63379 56.1228 1.40918 56.6404 1.24316C57.158 1.07715 57.7439 0.99414 58.3982 0.99414H73.8816V4.80273H58.3982C57.9002 4.80273 57.5193 4.93457 57.2557 5.19824C56.992 5.46191 56.8602 5.85254 56.8602 6.37012V16.6533C56.8602 17.1416 56.992 17.5225 57.2557 17.7959C57.5291 18.0596 57.91 18.1914 58.3982 18.1914H70.2488V13.416H60.1121V9.57812H72.1385C72.4119 9.57812 72.6658 9.63183 72.9002 9.73926C73.1346 9.83691 73.3348 9.97363 73.5008 10.1494C73.6766 10.3252 73.8133 10.5303 73.9109 10.7646C74.0086 10.9893 74.0574 11.2334 74.0574 11.4971V20.0811ZM79.765 9.57812H93.139V0.99414H96.9476V22H93.139V13.416H79.765V22H75.9564V0.99414H79.765V9.57812ZM119.926 22H116.117V16.8437H102.729V22H98.9199V11.4971C98.9199 9.96387 99.1836 8.55273 99.7109 7.26367C100.238 5.97461 100.971 4.86621 101.908 3.93848C102.846 3.01074 103.954 2.28808 105.233 1.77051C106.513 1.25293 107.909 0.99414 109.423 0.99414H118.007C118.27 0.99414 118.52 1.04297 118.754 1.14062C118.988 1.23828 119.193 1.375 119.369 1.55078C119.545 1.72656 119.682 1.93164 119.779 2.16601C119.877 2.40039 119.926 2.64941 119.926 2.91308V22ZM102.729 13.0352H116.117V4.80273H109.423C109.306 4.80273 109.057 4.82226 108.676 4.86133C108.305 4.89062 107.87 4.97363 107.372 5.11035C106.884 5.24707 106.366 5.45703 105.819 5.74023C105.272 6.02344 104.77 6.41406 104.311 6.91211C103.852 7.41015 103.471 8.03515 103.168 8.78711C102.875 9.52929 102.729 10.4326 102.729 11.4971V13.0352ZM146.712 22H142.875V9.49023L136.122 21.3701C135.956 21.6728 135.721 21.9023 135.419 22.0586C135.126 22.2148 134.808 22.293 134.466 22.293C134.134 22.293 133.822 22.2148 133.529 22.0586C133.246 21.9023 133.021 21.6728 132.855 21.3701L126.073 9.49023V22H122.264V2.62012C122.264 2.18066 122.391 1.79004 122.645 1.44824C122.909 1.10644 123.251 0.876952 123.67 0.759765C123.876 0.710936 124.081 0.696288 124.286 0.715819C124.491 0.725585 124.686 0.76953 124.872 0.847655C125.067 0.916015 125.243 1.01855 125.399 1.15527C125.555 1.28223 125.687 1.43848 125.795 1.62402L134.466 16.6973L143.138 1.62402C143.363 1.25293 143.67 0.989257 144.061 0.833007C144.462 0.676757 144.877 0.652343 145.306 0.759765C145.716 0.876952 146.053 1.10644 146.317 1.44824C146.581 1.79004 146.712 2.18066 146.712 2.62012V22Z" fill="white"/>
</svg>
