<svg width="122" height="80" viewBox="0 0 122 80" fill="none" xmlns="http://www.w3.org/2000/svg">
<g clip-path="url(#clip0_3836_173)">
<path d="M85.2382 2.42673C89.6437 0.263358 91.8269 0.547255 91.876 2.74006C91.9349 5.58861 91.5137 9.37665 91.2101 12.1176C89.5751 27.0149 86.8436 39.1881 86.638 54.4838C93.8338 35.858 99.8647 22.9125 107.638 6.96874C110.105 1.88837 111.682 2.83794 113.708 1.93731C121.599 -1.57675 121.893 0.576694 120.865 4.874C117.037 20.7904 107.237 70.9042 105.739 78.6207C105.308 80.8534 102.88 79.9069 102.253 79.0338C99.4438 75.1477 96.2718 75.087 96.624 72.5028C98.3864 59.6374 104.73 27.3585 106.385 19.7527C97.9554 37.0316 89.2129 58.6322 84.719 70.8799C83.7693 73.4806 82.0364 73.2898 80.9597 71.3869C79.442 68.7138 76.4952 67.349 76.0056 64.1902C74.4686 54.1472 77.768 35.0044 78.2279 22.8939C73.6365 36.1232 65.9315 61.8076 62.5538 73.412C61.1636 78.2134 56.5229 77.4302 57.7564 72.7504C62.8864 53.2758 73.9399 18.8325 78.7175 6.44989C79.8439 3.53271 82.7905 3.6306 85.2382 2.42673Z" fill="white" fill-opacity="0.65"/>
<path d="M57.2573 0.0381767C55.7692 -0.323925 51.4516 2.00578 48.7984 2.46577C47.9565 2.6126 47.1536 3.5033 46.8697 4.13972C42.6206 13.899 38.8123 23.2021 35.5129 31.6771C31.2933 32.3975 26.3592 33.3461 20.8374 34.5862C24.7926 24.4422 28.7871 14.4372 32.6836 4.81498C34.6024 0.0771933 29.5508 -0.373032 27.5926 4.42345C25.047 10.6589 20.2792 22.3417 15.0022 35.9586C11.1252 36.9091 7.01339 37.9955 2.71537 39.2369C-0.407844 40.1384 -0.534957 40.9704 0.816132 42.843C1.56014 43.8857 3.09724 43.7806 3.80205 44.5236C5.62313 46.4491 6.72945 48.7523 9.98942 49.1009C7.08168 56.8779 4.17399 64.8979 1.54044 72.6201C-0.114101 77.4674 4.59498 78.4589 6.4063 73.3295C9.32379 65.0611 12.398 56.6927 15.5602 48.349C18.1937 47.737 24.5672 46.3646 30.4511 45.0882C25.7812 57.8858 22.7069 67.605 21.542 72.336C21.3267 73.2462 21.6888 73.7514 21.8846 74.1224C23.4608 76.4158 24.9588 76.5097 26.9854 79.3455C27.5338 80.1188 29.3744 80.5358 30.0008 78.6319C34.3281 65.563 38.7827 53.3008 42.9337 42.3081C44.6567 41.9312 47.7602 41.1824 49.6595 38.3486C53.0371 33.319 54.0063 34.3391 54.8191 32.8101C55.8373 30.8906 55.1616 29.0884 51.559 29.5337C51.559 29.5337 50.1981 29.6306 47.682 29.9174C51.6764 19.6344 55.1715 10.9127 57.6876 4.26635C58.5496 2.01553 58.6573 0.371016 57.2573 0.0381767Z" fill="white" fill-opacity="0.65"/>
<path d="M51.3638 66.7321C52.2939 69.0823 55.2016 68.3706 54.0953 65.534C52.9692 62.6442 50.1693 53.9451 49.4349 51.1425C48.4364 47.3661 52.7636 48.3989 50.5706 50.8677C48.691 52.9907 47.4377 53.8414 43.9622 57.8782C40.6042 61.7751 41.5147 66.832 45.1077 67.949C49.1608 69.2096 52.7344 64.7441 54.9469 61.4679C57.091 58.2954 55.0154 56.4346 52.8518 58.3101C51.4615 59.5161 49.8559 61.368 48.2306 62.3665C46.909 63.1701 45.8711 62.3068 47.6335 59.8812C49.6797 57.0729 51.9706 54.7198 53.6741 52.0659C57.1497 46.6577 50.2768 43.5401 47.3201 47.0532C45.734 48.9258 46.1355 50.7642 46.5663 52.342C47.2615 54.8693 49.8462 62.9372 51.3638 66.7321Z" fill="white" fill-opacity="0.65"/>
</g>
<defs>
<clipPath id="clip0_3836_173">
<rect width="121.29" height="80" fill="white"/>
</clipPath>
</defs>
</svg>
