<svg width="28" height="32" viewBox="0 0 28 32" fill="none" xmlns="http://www.w3.org/2000/svg">
<g clip-path="url(#clip0_3881_529)">
<path d="M14.0062 8.8127C10.0312 8.8127 6.82499 12.0189 6.82499 15.9939C6.82499 19.9689 10.0312 23.1752 14.0062 23.1752C17.9812 23.1752 21.1875 19.9689 21.1875 15.9939C21.1875 12.0189 17.9812 8.8127 14.0062 8.8127ZM14.0062 20.6627C11.4375 20.6627 9.33749 18.5689 9.33749 15.9939C9.33749 13.4189 11.4312 11.3252 14.0062 11.3252C16.5812 11.3252 18.675 13.4189 18.675 15.9939C18.675 18.5689 16.575 20.6627 14.0062 20.6627ZM23.1562 8.51895C23.1562 9.4502 22.4062 10.1939 21.4812 10.1939C20.55 10.1939 19.8062 9.44395 19.8062 8.51895C19.8062 7.59395 20.5562 6.84395 21.4812 6.84395C22.4062 6.84395 23.1562 7.59395 23.1562 8.51895ZM27.9125 10.2189C27.8062 7.9752 27.2937 5.9877 25.65 4.3502C24.0125 2.7127 22.025 2.2002 19.7812 2.0877C17.4687 1.95645 10.5375 1.95645 8.22499 2.0877C5.98749 2.19395 3.99999 2.70645 2.35624 4.34395C0.712488 5.98145 0.206238 7.96895 0.0937378 10.2127C-0.0375122 12.5252 -0.0375122 19.4564 0.0937378 21.7689C0.199988 24.0127 0.712488 26.0002 2.35624 27.6377C3.99999 29.2752 5.98124 29.7877 8.22499 29.9002C10.5375 30.0314 17.4687 30.0314 19.7812 29.9002C22.025 29.7939 24.0125 29.2814 25.65 27.6377C27.2875 26.0002 27.8 24.0127 27.9125 21.7689C28.0437 19.4564 28.0437 12.5314 27.9125 10.2189ZM24.925 24.2502C24.4375 25.4752 23.4937 26.4189 22.2625 26.9127C20.4187 27.6439 16.0437 27.4752 14.0062 27.4752C11.9687 27.4752 7.58749 27.6377 5.74999 26.9127C4.52499 26.4252 3.58124 25.4814 3.08749 24.2502C2.35624 22.4064 2.52499 18.0314 2.52499 15.9939C2.52499 13.9564 2.36249 9.5752 3.08749 7.7377C3.57499 6.5127 4.51874 5.56895 5.74999 5.0752C7.59374 4.34395 11.9687 4.5127 14.0062 4.5127C16.0437 4.5127 20.425 4.35019 22.2625 5.0752C23.4875 5.5627 24.4312 6.50644 24.925 7.7377C25.6562 9.58145 25.4875 13.9564 25.4875 15.9939C25.4875 18.0314 25.6562 22.4127 24.925 24.2502Z" fill="#000A04" fill-opacity="0.5"/>
</g>
<defs>
<clipPath id="clip0_3881_529">
<rect width="28" height="32" fill="white"/>
</clipPath>
</defs>
</svg>
