<svg width="33" height="32" viewBox="0 0 33 32" fill="none" xmlns="http://www.w3.org/2000/svg">
<g clip-path="url(#clip0_3881_533)">
<path d="M29.6 0H2.4C1.06667 0 0 1.06667 0 2.31111V29.6889C0 30.9333 1.06667 32 2.4 32H29.6889C31.0222 32 32.0889 30.9333 32.0889 29.6889V2.31111C32 1.06667 30.9333 0 29.6 0ZM9.51111 27.2889H4.71111V12H9.42222V27.2889H9.51111ZM7.11111 9.86667C5.6 9.86667 4.35556 8.62222 4.35556 7.11111C4.35556 5.6 5.6 4.44444 7.11111 4.44444C8.62222 4.44444 9.86667 5.68889 9.86667 7.2C9.86667 8.71111 8.62222 9.86667 7.11111 9.86667ZM27.2889 27.2889H22.5778V19.8222C22.5778 18.0444 22.5778 15.7333 20.0889 15.7333C17.6 15.7333 17.2444 17.6889 17.2444 19.6444V27.2H12.4444V12H16.9778V14.0444H17.0667C17.6889 12.8 19.2889 11.5556 21.6 11.5556C26.4 11.5556 27.2889 14.7556 27.2889 18.8444V27.2889Z" fill="#000A04" fill-opacity="0.5"/>
</g>
<defs>
<clipPath id="clip0_3881_533">
<rect width="32.0889" height="32" fill="white"/>
</clipPath>
</defs>
</svg>
