<svg width="204" height="205" viewBox="0 0 204 205" fill="none" xmlns="http://www.w3.org/2000/svg">
<mask id="mask0_3966_163" style="mask-type:alpha" maskUnits="userSpaceOnUse" x="0" y="0" width="204" height="205">
<rect width="204" height="205" fill="#D9D9D9"/>
<rect x="0.5" y="0.5" width="203" height="204" stroke="#F7FAF9" stroke-opacity="0.7"/>
</mask>
<g mask="url(#mask0_3966_163)">
<line x1="424.046" y1="-129.252" x2="-183.493" y2="478.287" stroke="#F7FAF9" stroke-opacity="0.7"/>
<line x1="176.122" y1="-129.252" x2="-431.417" y2="478.287" stroke="#F7FAF9" stroke-opacity="0.7"/>
<line x1="311.354" y1="-129.252" x2="-296.185" y2="478.287" stroke="#F7FAF9" stroke-opacity="0.7"/>
<line x1="63.4302" y1="-129.252" x2="-544.109" y2="478.287" stroke="#F7FAF9" stroke-opacity="0.7"/>
<line x1="469.124" y1="-129.252" x2="-138.415" y2="478.287" stroke="#F7FAF9" stroke-opacity="0.7"/>
<line x1="221.2" y1="-129.252" x2="-386.339" y2="478.287" stroke="#F7FAF9" stroke-opacity="0.7"/>
<line x1="356.432" y1="-129.252" x2="-251.107" y2="478.287" stroke="#F7FAF9" stroke-opacity="0.7"/>
<line x1="108.508" y1="-129.252" x2="-499.031" y2="478.287" stroke="#F7FAF9" stroke-opacity="0.7"/>
<line x1="446.585" y1="-129.252" x2="-160.954" y2="478.287" stroke="#F7FAF9" stroke-opacity="0.7"/>
<line x1="198.661" y1="-129.252" x2="-408.878" y2="478.287" stroke="#F7FAF9" stroke-opacity="0.7"/>
<line x1="333.893" y1="-129.252" x2="-273.646" y2="478.287" stroke="#F7FAF9" stroke-opacity="0.7"/>
<line x1="85.9693" y1="-129.252" x2="-521.57" y2="478.287" stroke="#F7FAF9" stroke-opacity="0.7"/>
<line x1="401.507" y1="-129.646" x2="-206.032" y2="477.893" stroke="#F7FAF9" stroke-opacity="0.7"/>
<line x1="153.583" y1="-129.646" x2="-453.956" y2="477.893" stroke="#F7FAF9" stroke-opacity="0.7"/>
<line x1="288.815" y1="-129.646" x2="-318.724" y2="477.893" stroke="#F7FAF9" stroke-opacity="0.7"/>
<line x1="40.8912" y1="-129.646" x2="-566.648" y2="477.893" stroke="#F7FAF9" stroke-opacity="0.7"/>
<line x1="266.276" y1="-129.646" x2="-341.264" y2="477.893" stroke="#F7FAF9" stroke-opacity="0.7"/>
<line x1="18.3521" y1="-129.646" x2="-589.187" y2="477.893" stroke="#F7FAF9" stroke-opacity="0.7"/>
<line x1="491.66" y1="-129.252" x2="-115.876" y2="478.284" stroke="#F7FAF9" stroke-opacity="0.7"/>
<line x1="243.736" y1="-129.252" x2="-363.799" y2="478.284" stroke="#F7FAF9" stroke-opacity="0.7"/>
<line x1="378.968" y1="-129.252" x2="-228.568" y2="478.284" stroke="#F7FAF9" stroke-opacity="0.7"/>
<line x1="131.044" y1="-129.252" x2="-476.492" y2="478.284" stroke="#F7FAF9" stroke-opacity="0.7"/>
<line x1="581.813" y1="-127.252" x2="-25.7259" y2="480.287" stroke="#F7FAF9" stroke-opacity="0.7"/>
<line x1="626.891" y1="-127.252" x2="19.3522" y2="480.287" stroke="#F7FAF9" stroke-opacity="0.7"/>
<line x1="514.199" y1="-127.252" x2="-93.3401" y2="480.287" stroke="#F7FAF9" stroke-opacity="0.7"/>
<line x1="604.352" y1="-127.252" x2="-3.18686" y2="480.287" stroke="#F7FAF9" stroke-opacity="0.7"/>
<line x1="559.274" y1="-127.646" x2="-48.265" y2="479.893" stroke="#F7FAF9" stroke-opacity="0.7"/>
<line x1="536.735" y1="-127.252" x2="-70.8009" y2="480.284" stroke="#F7FAF9" stroke-opacity="0.7"/>
</g>
</svg>
