<svg width="287" height="20" viewBox="0 0 287 20" fill="none" xmlns="http://www.w3.org/2000/svg">
<g clip-path="url(#clip0_3836_193)">
<path d="M5.17191 9.28576V0.87306H7.88101C11.1648 0.87306 12.3141 2.93655 12.3141 4.92068C12.3141 7.61909 10.5901 9.36512 6.97798 9.36512H5.17191V9.28576ZM9.11242 9.76195C13.5455 9.44449 15.8441 7.61909 15.8441 5.00004C15.8441 2.53973 14.1201 0.317505 8.86613 0.317505H0V0.952425H1.88816V19.0477H0V19.6826H7.38844V19.0477H5.17191V9.84131H5.254L12.9708 19.6032H17.8965V18.9683H16.4188L9.11242 9.76195Z" fill="white" fill-opacity="0.65"/>
<path d="M29.3075 11.5079L32.3449 3.33328H32.427L35.3824 11.5079H29.3075ZM34.5615 0.238037H32.5912L25.6133 19.0476H23.8072V19.6825H29.3896V19.0476H26.4342L29.0612 11.9047H35.5466L38.0915 19.0476H35.875V19.6825H42.6067V19.0476H41.3753L34.5615 0.238037Z" fill="white" fill-opacity="0.65"/>
<path d="M60.1748 18.9683H55.6596V0.952425H58.6971V0.317505H50.4877V0.952425H52.3759V19.0477H50.4877V19.6826H65.2646V11.9048H64.6079C62.8018 18.6508 62.2271 18.9683 60.1748 18.9683Z" fill="white" fill-opacity="0.65"/>
<path d="M80.0415 1.19052H83.161C86.3627 1.19052 87.6762 2.93655 87.6762 5.63496C87.6762 9.04766 86.1985 9.84131 82.9148 9.84131H80.0415C80.0415 9.68258 80.0415 1.19052 80.0415 1.19052ZM82.9148 19.0477H80.0415V10.2381H83.7357C88.7434 10.2381 91.1241 8.25401 91.1241 5.39687C91.1241 2.53973 88.4971 0.317505 83.7357 0.317505H74.9517V0.952425H76.8398V18.9683H74.9517V19.6032H82.8327V19.0477H82.9148Z" fill="white" fill-opacity="0.65"/>
<path d="M110.663 18.9683V19.6826H117.805V18.9683H115.916V1.11116H117.805V0.317505H110.663V1.11116H112.551V9.36512H104.588V1.11116H106.558V0.317505H99.4156V1.11116H101.222V18.9683H99.4156V19.6826H106.558V18.9683H104.588V9.92068H112.551V18.9683H110.663Z" fill="white" fill-opacity="0.65"/>
<path d="M160.247 11.8254H159.59C157.702 18.5715 157.127 18.9683 155.157 18.9683H150.642V0.952425H153.68V0.317505H145.47V0.952425H147.358V19.0477H145.47V19.6826H160.247V11.8254Z" fill="white" fill-opacity="0.65"/>
<path d="M173.054 11.5079L176.091 3.33328H176.173L179.129 11.5079H173.054ZM178.39 0.238037H176.42L169.36 19.0476H167.636V19.6825H173.218V19.0476H170.263L172.89 11.9047H179.375L181.92 19.0476H179.703V19.6825H186.435V19.0476H185.286L178.39 0.238037Z" fill="white" fill-opacity="0.65"/>
<path d="M205.317 0.872997H208.026V14.6825C208.026 17.619 205.973 19.3651 203.018 19.3651C201.048 19.3651 198.995 18.254 198.995 14.8413V0.872997H201.13V0.0793457H193.824V0.714266H195.712V14.127C195.712 17.9365 197.928 19.8413 202.936 19.8413C206.548 19.8413 208.929 17.7778 208.929 14.6032V0.872997H210.817V0.0793457H205.317V0.872997Z" fill="white" fill-opacity="0.65"/>
<path d="M224.362 9.28576V0.87306H227.071C230.355 0.87306 231.505 2.93655 231.505 4.92068C231.505 7.61909 229.781 9.36512 226.168 9.36512H224.362V9.28576ZM228.385 9.76195C232.818 9.44449 235.117 7.61909 235.117 5.00004C235.117 2.53973 233.393 0.317505 228.139 0.317505H219.273V0.952425H221.161V19.0477H219.273V19.6826H226.661V19.0477H224.28V9.84131H224.362L232.079 19.6032H237.005V18.9683H235.609L228.385 9.76195Z" fill="white" fill-opacity="0.65"/>
<path d="M254.819 18.9683H249.483V9.84131H251.864C253.424 9.84131 254.08 10.7143 254.737 13.6508H255.394V5.3175H254.737C254.163 8.33338 253.342 9.12703 251.864 9.12703H249.483V0.87306H255.558C257.036 0.87306 257.528 1.26989 259.17 6.42862H259.827V0.317505H244.311V0.952425H246.199V19.0477H244.311V19.6826H260.155V12.4604H259.417C257.61 18.1746 256.954 18.9683 254.819 18.9683Z" fill="white" fill-opacity="0.65"/>
<path d="M281.746 0.317505V1.11116H284.209V14.2858H284.127L275.096 0.317505H269.268V1.11116H271.32V18.9683H269.268V19.6826H274.686V18.9683H272.141V1.58735L284.045 19.6826H284.948V1.11116H287V0.317505H281.746Z" fill="white" fill-opacity="0.65"/>
</g>
<defs>
<clipPath id="clip0_3836_193">
<rect width="287" height="20" fill="white"/>
</clipPath>
</defs>
</svg>
