<svg width="36" height="32" viewBox="0 0 36 32" fill="none" xmlns="http://www.w3.org/2000/svg">
<g clip-path="url(#clip0_3881_531)">
<path d="M35.3209 5.09143C34.0267 5.66743 32.6329 6.05143 31.1751 6.22921C32.6684 5.33321 33.8062 3.9181 34.3467 2.23988C32.9529 3.05765 31.4098 3.6621 29.7671 3.9821C28.4515 2.58121 26.5742 1.70654 24.4978 1.70654C20.5084 1.70654 17.28 4.93499 17.28 8.92432C17.28 9.49321 17.344 10.0408 17.4649 10.567C11.4702 10.2683 6.1511 7.39543 2.58843 3.02921C1.96977 4.09588 1.61421 5.33321 1.61421 6.65588C1.61421 9.15899 2.8871 11.3705 4.82132 12.6648C3.64088 12.6292 2.52443 12.3021 1.55021 11.7617C1.55021 11.7901 1.55021 11.8185 1.55021 11.8541C1.55021 15.3528 4.0391 18.2683 7.33866 18.9297C6.73421 19.0932 6.09421 19.1857 5.43999 19.1857C4.97777 19.1857 4.52266 19.143 4.08177 19.0577C4.9991 21.9234 7.66577 24.0141 10.8231 24.071C8.35555 26.0052 5.24088 27.1572 1.8631 27.1572C1.27999 27.1572 0.70399 27.1217 0.142212 27.0577C3.3351 29.1057 7.13243 30.3003 11.2071 30.3003C24.4835 30.3003 31.744 19.3065 31.744 9.76343C31.744 9.45054 31.7369 9.13765 31.7227 8.83188C33.1307 7.80788 34.3538 6.53499 35.3209 5.09143Z" fill="#000A04" fill-opacity="0.5"/>
</g>
<defs>
<clipPath id="clip0_3881_531">
<rect width="35.5556" height="32" fill="white"/>
</clipPath>
</defs>
</svg>
