<svg width="145" height="60" viewBox="0 0 145 60" fill="none" xmlns="http://www.w3.org/2000/svg">
<g clip-path="url(#clip0_3836_156)">
<path d="M137.131 58.213L115.716 0.0509493L115.701 0.0124512H115.279L110.869 11.9645L102.84 33.7237L102.822 33.7064C100.039 31.2845 96.1133 29.7705 91.1693 29.2067L89.6614 29.0531L91.1573 28.8639C99.3105 27.4187 104.791 22.3392 104.791 16.2194C104.791 7.82742 96.7895 1.96987 85.3278 1.96987H61.4798V2.39477H68.4093V45.7579L51.58 0.0508067L51.5649 0.0124512H51.1422L46.7321 11.9645L29.7229 58.0633L29.6182 58.0753C29.3276 58.1106 29.04 58.1387 28.7556 58.16C28.3277 58.1931 27.9023 58.2129 27.4756 58.2129H10.2892L42.9583 2.39463L43.2012 1.97514H3.24548V19.2423H3.66943C3.74459 10.8317 8.71002 2.39463 19.6807 2.39463H32.916L0 58.6311H44.3442V42.088H43.9203C43.8625 49.4186 39.6498 56.3814 30.4891 57.9535L30.1979 58.0026L37.1745 39.0865H56.7182L63.7604 58.213H56.8136V58.6312H84.0799V58.213H77.1033V29.3615H85.1533C93.3454 29.3615 98.0439 32.9718 98.0439 39.2635V44.3814C98.0439 44.9453 98.0828 45.7697 98.1257 46.4593V46.4844L93.7989 58.2103H88.1464V58.6285H99.8469V58.2103H94.2552L98.1955 47.5326C98.2036 47.6359 98.2076 47.698 98.2076 47.698L98.3164 48.6602L98.421 49.2967C99.0784 53.2341 100.605 56.1284 102.957 57.8992L103.295 58.1414C105.082 59.367 107.303 59.9876 109.899 59.9876C113.338 59.9876 115.63 59.142 117.523 57.1516L117.275 56.9212C115.531 58.5093 114.067 59.1527 112.233 59.1527C109.109 59.1527 107.473 55.4138 107.473 51.7267V44.556C107.49 42.7768 107.207 41.0072 106.637 39.3191L106.559 39.0969V39.0889H120.854L127.897 58.2156H120.95V58.6338H144.545V58.2156L137.131 58.213ZM37.33 38.6681L46.9578 12.5761L56.564 38.6681H37.33ZM77.1075 28.9419V2.39463H83.2521C91.4604 2.39463 95.7939 7.20803 95.7939 16.3096C95.7939 25.9893 93.3064 28.9419 85.1533 28.9419H77.1075ZM106.393 38.6681L106.351 38.5649C105.716 37.0386 104.791 35.6461 103.626 34.4621L103.224 34.065L103.181 34.0254L111.089 12.5761L120.695 38.6681H106.393Z" fill="white" fill-opacity="0.65"/>
</g>
<defs>
<clipPath id="clip0_3836_156">
<rect width="144.545" height="60" fill="white"/>
</clipPath>
</defs>
</svg>
