<svg xmlns="http://www.w3.org/2000/svg" viewBox="0 0 512 512"><path fill="#fff" d="M199.355,427.619a15,15,0,0,1-15-14.838l-2.332-215.593a15,15,0,0,1,15.161-15.161l215.593,2.332a15,15,0,0,1-.159,30h-.165l-200.266-2.166,2.166,200.266a15,15,0,0,1-14.836,15.161Zm-97.48-97.646a15,15,0,0,0,14.837-15.162l-2.166-200.266,200.266,2.167h.165a15,15,0,0,0,.159-30L99.543,84.381A15,15,0,0,0,84.382,99.542l2.332,215.594a15,15,0,0,0,15,14.838Zm314.29,57.907a20,20,0,1,0,0,28.284A20,20,0,0,0,416.165,387.88Z"/></svg>